<?xml version="1.0" encoding="UTF-8"?>
<svg xmlns="http://www.w3.org/2000/svg" width="390" height="720" viewBox="0 0 390 720">
  <rect x="0" y="0" width="390" height="720" rx="0" fill="#f5f5f5"/>
  <rect x="16" y="20" width="90" height="34" rx="10" fill="#FFFFFF" stroke="#a3a3a3" stroke-width="1.5"/>
  <text x="61" y="42" font-family="Segoe UI, Inter, Arial, sans-serif" font-size="12" font-weight="600" fill="#1a1a1a" text-anchor="middle">← Kembali</text>
  <rect x="118" y="24" width="20" height="14" rx="2" fill="#FFFFFF" stroke="#000000" stroke-width="1.5"/>
  <polygon points="128,18 140,26 116,26" fill="#000000"/>
  <rect x="124" y="28" width="8" height="10" rx="0" fill="#FFFFFF" stroke="#000000" stroke-width="1"/>
  <text x="146" y="42" font-family="Segoe UI, Inter, Arial, sans-serif" font-size="18" font-weight="700" fill="#1a1a1a" text-anchor="start">Daftar Siswa</text>
  <rect x="16" y="68" width="290" height="40" rx="8" fill="#FFFFFF" stroke="#a3a3a3" stroke-width="1.5"/>
  <text x="30" y="93.0" font-family="Segoe UI, Inter, Arial, sans-serif" font-size="13" fill="#6b7280" text-anchor="start">Cari nama atau kelompok...</text>
  <text x="320" y="94" font-family="Segoe UI, Inter, Arial, sans-serif" font-size="12" font-weight="500" fill="#6b7280" text-anchor="start">2 siswa</text>
  <rect x="16" y="130" width="358" height="80" rx="16" fill="#FFFFFF" stroke="#a3a3a3" stroke-width="1.5"/>
  <circle cx="44" cy="170" r="14" fill="#000000" stroke="#000000" stroke-width="2"/>
  <text x="44" y="175" font-family="Segoe UI, Inter, Arial, sans-serif" font-size="12" font-weight="700" fill="#FFFFFF" text-anchor="middle">1</text>
  <circle cx="88" cy="166" r="20" fill="#000000"/>
  <text x="88" y="171" font-family="Segoe UI, Inter, Arial, sans-serif" font-size="14" font-weight="700" fill="#FFFFFF" text-anchor="middle">A</text>
  <text x="120" y="162" font-family="Segoe UI, Inter, Arial, sans-serif" font-size="16" font-weight="700" fill="#1a1a1a" text-anchor="start">Abdul</text>
  <text x="120" y="182" font-family="Segoe UI, Inter, Arial, sans-serif" font-size="11" fill="#6b7280" text-anchor="start">TK A</text>
  <rect x="310" y="148" width="52" height="26" rx="13" fill="#f5f5f5" stroke="#a3a3a3" stroke-width="1"/>
  <text x="324" y="165" font-family="Segoe UI, Inter, Arial, sans-serif" font-size="10" fill="#1a1a1a" text-anchor="start">★</text>
  <text x="344" y="165" font-family="Segoe UI, Inter, Arial, sans-serif" font-size="10" font-weight="600" fill="#1a1a1a" text-anchor="middle">0</text>
  <text x="354" y="198" font-family="Segoe UI, Inter, Arial, sans-serif" font-size="16" fill="#6b7280" text-anchor="middle">⋯</text>
  <rect x="16" y="226" width="358" height="80" rx="16" fill="#FFFFFF" stroke="#a3a3a3" stroke-width="1.5"/>
  <circle cx="44" cy="266" r="14" fill="#FFFFFF" stroke="#000000" stroke-width="2"/>
  <text x="44" y="271" font-family="Segoe UI, Inter, Arial, sans-serif" font-size="12" font-weight="700" fill="#1a1a1a" text-anchor="middle">2</text>
  <circle cx="88" cy="262" r="20" fill="#000000"/>
  <text x="88" y="267" font-family="Segoe UI, Inter, Arial, sans-serif" font-size="14" font-weight="700" fill="#FFFFFF" text-anchor="middle">T</text>
  <text x="120" y="258" font-family="Segoe UI, Inter, Arial, sans-serif" font-size="16" font-weight="700" fill="#1a1a1a" text-anchor="start">Tesa</text>
  <text x="120" y="278" font-family="Segoe UI, Inter, Arial, sans-serif" font-size="11" fill="#6b7280" text-anchor="start">TK B</text>
  <rect x="310" y="244" width="52" height="26" rx="13" fill="#f5f5f5" stroke="#a3a3a3" stroke-width="1"/>
  <text x="324" y="261" font-family="Segoe UI, Inter, Arial, sans-serif" font-size="10" fill="#1a1a1a" text-anchor="start">★</text>
  <text x="344" y="261" font-family="Segoe UI, Inter, Arial, sans-serif" font-size="10" font-weight="600" fill="#1a1a1a" text-anchor="middle">0</text>
  <text x="354" y="294" font-family="Segoe UI, Inter, Arial, sans-serif" font-size="16" fill="#6b7280" text-anchor="middle">⋯</text>
</svg>
