<?xml version="1.0" encoding="UTF-8"?>
<svg xmlns="http://www.w3.org/2000/svg" width="390" height="720" viewBox="0 0 390 720">
  <rect x="0" y="0" width="390" height="720" rx="0" fill="#f5f5f5"/>
  <rect x="16" y="20" width="80" height="32" rx="10" fill="#FFFFFF" stroke="#a3a3a3" stroke-width="1.5"/>
  <text x="56" y="40" font-family="Segoe UI, Inter, Arial, sans-serif" font-size="11" font-weight="600" fill="#1a1a1a" text-anchor="middle">← Kembali</text>
  <rect x="110" y="20" width="150" height="28" rx="14" fill="#f5f5f5" stroke="#a3a3a3" stroke-width="1"/>
  <text x="185" y="38" font-family="Segoe UI, Inter, Arial, sans-serif" font-size="10" font-weight="600" fill="#1a1a1a" text-anchor="middle">kewarganegaraan</text>
  <text x="366" y="38" font-family="Segoe UI, Inter, Arial, sans-serif" font-size="11" font-weight="600" fill="#1a1a1a" text-anchor="end">Soal 1 / 4</text>
  <text x="195.0" y="72" font-family="Segoe UI, Inter, Arial, sans-serif" font-size="22" font-weight="800" fill="#1a1a1a" text-anchor="middle">Kerjakan Soal</text>
  <line x1="16" y1="88" x2="374" y2="88" stroke="#a3a3a3" stroke-width="2"/>
  <rect x="16" y="100" width="358" height="340" rx="20" fill="#FFFFFF" stroke="#a3a3a3" stroke-width="1"/>
  <text x="32" y="128" font-family="Segoe UI, Inter, Arial, sans-serif" font-size="11" font-weight="800" fill="#1a1a1a" text-anchor="start">SOAL 1</text>
  <rect x="260" y="112" width="110" height="24" rx="12" fill="#f5f5f5" stroke="#a3a3a3" stroke-width="1"/>
  <text x="315.0" y="128.0" font-family="Segoe UI, Inter, Arial, sans-serif" font-size="11" font-weight="600" fill="#1a1a1a" text-anchor="middle">PILIHAN GANDA</text>
  <text x="195.0" y="200" font-family="Segoe UI, Inter, Arial, sans-serif" font-size="22" font-weight="700" fill="#1a1a1a" text-anchor="middle">Test</text>
  <rect x="32" y="240" width="326" height="44" rx="12" fill="#f5f5f5" stroke="#a3a3a3" stroke-width="1"/>
  <circle cx="52" cy="262" r="10" fill="none" stroke="#000000" stroke-width="2"/>
  <text x="72" y="268" font-family="Segoe UI, Inter, Arial, sans-serif" font-size="14" font-weight="500" fill="#1a1a1a" text-anchor="start">Benar</text>
  <rect x="32" y="292" width="326" height="44" rx="12" fill="#f5f5f5" stroke="#a3a3a3" stroke-width="1"/>
  <circle cx="52" cy="314" r="10" fill="none" stroke="#000000" stroke-width="2"/>
  <text x="72" y="320" font-family="Segoe UI, Inter, Arial, sans-serif" font-size="14" font-weight="500" fill="#1a1a1a" text-anchor="start">Salah</text>
  <rect x="32" y="344" width="326" height="44" rx="12" fill="#f5f5f5" stroke="#a3a3a3" stroke-width="1"/>
  <circle cx="52" cy="366" r="10" fill="none" stroke="#000000" stroke-width="2"/>
  <text x="72" y="372" font-family="Segoe UI, Inter, Arial, sans-serif" font-size="14" font-weight="500" fill="#1a1a1a" text-anchor="start">Salah</text>
  <rect x="260" y="460" width="114" height="44" rx="14" fill="#000000"/>
  <text x="317" y="488" font-family="Segoe UI, Inter, Arial, sans-serif" font-size="14" font-weight="700" fill="#FFFFFF" text-anchor="middle">Lanjut →</text>
</svg>
