<?xml version="1.0" encoding="UTF-8"?>
<svg xmlns="http://www.w3.org/2000/svg" width="390" height="720" viewBox="0 0 390 720">
  <rect x="0" y="0" width="390" height="720" rx="0" fill="#f5f5f5"/>
  <rect x="16" y="20" width="80" height="32" rx="10" fill="#FFFFFF" stroke="#a3a3a3" stroke-width="1.5"/>
  <text x="56" y="40" font-family="Segoe UI, Inter, Arial, sans-serif" font-size="11" font-weight="600" fill="#1a1a1a" text-anchor="middle">← Kembali</text>
  <rect x="110" y="20" width="150" height="28" rx="14" fill="#f5f5f5" stroke="#a3a3a3" stroke-width="1"/>
  <text x="185" y="38" font-family="Segoe UI, Inter, Arial, sans-serif" font-size="10" font-weight="600" fill="#1a1a1a" text-anchor="middle">kewarganegaraan</text>
  <text x="366" y="38" font-family="Segoe UI, Inter, Arial, sans-serif" font-size="11" font-weight="600" fill="#1a1a1a" text-anchor="end">Soal 3 / 4</text>
  <rect x="16" y="56" width="358" height="8" rx="4" fill="#f5f5f5"/>
  <rect x="16" y="56" width="268" height="8" rx="4" fill="#000000"/>
  <rect x="24" y="120" width="342" height="280" rx="20" fill="#FFFFFF" stroke="#a3a3a3" stroke-width="1.5"/>
  <circle cx="195.0" cy="200" r="28" fill="#f5f5f5" stroke="#000000" stroke-width="2"/>
  <line x1="185.0" y1="190" x2="205.0" y2="210" stroke="#000000" stroke-width="3" stroke-linecap="round"/>
  <line x1="205.0" y1="190" x2="185.0" y2="210" stroke="#000000" stroke-width="3" stroke-linecap="round"/>
  <text x="195.0" y="260" font-family="Segoe UI, Inter, Arial, sans-serif" font-size="22" font-weight="800" fill="#1a1a1a" text-anchor="middle">Jawaban Salah</text>
  <text x="195.0" y="290" font-family="Segoe UI, Inter, Arial, sans-serif" font-size="13" fill="#6b7280" text-anchor="middle">Tetap semangat, terus berlatih!</text>
  <rect x="220" y="430" width="154" height="44" rx="14" fill="#000000"/>
  <text x="297" y="458" font-family="Segoe UI, Inter, Arial, sans-serif" font-size="13" font-weight="700" fill="#FFFFFF" text-anchor="middle">Soal Berikutnya →</text>
</svg>
