<?xml version="1.0" encoding="UTF-8"?>
<svg xmlns="http://www.w3.org/2000/svg" width="1280" height="800" viewBox="0 0 1280 800">
  <rect x="0" y="0" width="1280" height="800" rx="0" fill="#f5f5f5"/>
  <circle cx="1200" cy="90" r="200" fill="#FFFFFF" stroke="#d4d4d4" stroke-width="1"/>
  <circle cx="60" cy="740" r="160" fill="#FFFFFF" stroke="#d4d4d4" stroke-width="1"/>
  <text x="60" y="770" font-family="Segoe UI, Inter, Arial, sans-serif" font-size="28" fill="#6b7280" text-anchor="start">○</text>
  <text x="1180" y="60" font-family="Segoe UI, Inter, Arial, sans-serif" font-size="24" fill="#6b7280" text-anchor="start">★</text>
  <rect x="420" y="140" width="440" height="520" rx="32" fill="#FFFFFF" stroke="#000000" stroke-width="2"/>
  <rect x="420" y="652" width="440" height="8" rx="4" fill="#6b7280"/>
  <rect x="604.0" y="172" width="72" height="72" rx="36" fill="#f5f5f5" stroke="#a3a3a3" stroke-width="1"/>
  <text x="640.0" y="218" font-family="Segoe UI, Inter, Arial, sans-serif" font-size="11" font-weight="600" fill="#6b7280" text-anchor="middle">LOGO</text>
  <text x="640.0" y="258" font-family="Segoe UI, Inter, Arial, sans-serif" font-size="32" font-weight="900" fill="#1a1a1a" text-anchor="middle">Halo, Sobat!</text>
  <text x="640.0" y="290" font-family="Segoe UI, Inter, Arial, sans-serif" font-size="14" font-weight="500" fill="#6b7280" text-anchor="middle">Yuk masuk dan mulai belajar seru!</text>
  <text x="468" y="336" font-family="Segoe UI, Inter, Arial, sans-serif" font-size="14" font-weight="700" fill="#1a1a1a" text-anchor="start">Username</text>
  <rect x="468" y="346" width="344" height="48" rx="8" fill="#333333" stroke="#000000" stroke-width="1"/>
  <text x="482" y="375.0" font-family="Segoe UI, Inter, Arial, sans-serif" font-size="13" fill="#FFFFFF" text-anchor="start">admin</text>
  <text x="468" y="418" font-family="Segoe UI, Inter, Arial, sans-serif" font-size="14" font-weight="700" fill="#1a1a1a" text-anchor="start">Password</text>
  <rect x="468" y="428" width="344" height="48" rx="8" fill="#333333" stroke="#000000" stroke-width="1"/>
  <text x="482" y="457.0" font-family="Segoe UI, Inter, Arial, sans-serif" font-size="13" fill="#FFFFFF" text-anchor="start">••••••••</text>
  <rect x="468" y="508" width="344" height="54" rx="18" fill="#000000"/>
  <text x="640.0" y="542" font-family="Segoe UI, Inter, Arial, sans-serif" font-size="16" font-weight="800" fill="#FFFFFF" text-anchor="middle">Ayo Masuk!</text>
</svg>
