<?xml version="1.0" encoding="UTF-8"?>
<svg xmlns="http://www.w3.org/2000/svg" width="1280" height="800" viewBox="0 0 1280 800">
  <rect x="0" y="0" width="1280" height="800" rx="0" fill="#f5f5f5"/>
  <circle cx="1200" cy="90" r="200" fill="#FFFFFF" stroke="#d4d4d4" stroke-width="1"/>
  <circle cx="60" cy="740" r="160" fill="#FFFFFF" stroke="#d4d4d4" stroke-width="1"/>
  <text x="60" y="770" font-family="Segoe UI, Inter, Arial, sans-serif" font-size="28" fill="#6b7280" text-anchor="start">○</text>
  <text x="1180" y="60" font-family="Segoe UI, Inter, Arial, sans-serif" font-size="24" fill="#6b7280" text-anchor="start">★</text>
  <rect x="260" y="32" width="90" height="38" rx="10" fill="#FFFFFF" stroke="#a3a3a3" stroke-width="1.5"/>
  <text x="305" y="56" font-family="Segoe UI, Inter, Arial, sans-serif" font-size="13" font-weight="600" fill="#1a1a1a" text-anchor="middle">← Kembali</text>
  <rect x="370" y="32" width="650" height="56" rx="14" fill="#FFFFFF" stroke="#a3a3a3" stroke-width="1.5"/>
  <circle cx="402" cy="60" r="20" fill="#000000"/>
  <text x="402" y="66" font-family="Segoe UI, Inter, Arial, sans-serif" font-size="14" font-weight="700" fill="#FFFFFF" text-anchor="middle">T</text>
  <text x="432" y="50" font-family="Segoe UI, Inter, Arial, sans-serif" font-size="16" font-weight="700" fill="#1a1a1a" text-anchor="start">Tesa</text>
  <text x="432" y="72" font-family="Segoe UI, Inter, Arial, sans-serif" font-size="11" fill="#6b7280" text-anchor="start">TK A • ★ 0 • Skor 0 • Rank BEGINNER</text>
  <rect x="260" y="114" width="12" height="14" rx="2" fill="#FFFFFF" stroke="#000000" stroke-width="1.5"/>
  <rect x="266" y="110" width="12" height="14" rx="2" fill="#f5f5f5" stroke="#000000" stroke-width="1.5"/>
  <rect x="272" y="108" width="12" height="14" rx="2" fill="#FFFFFF" stroke="#000000" stroke-width="1.5"/>
  <text x="292" y="124" font-family="Segoe UI, Inter, Arial, sans-serif" font-size="28" font-weight="700" fill="#1a1a1a" text-anchor="start">Pilih Topik</text>
  <text x="260" y="152" font-family="Segoe UI, Inter, Arial, sans-serif" font-size="13" fill="#6b7280" text-anchor="start">Pilih topik yang ingin dikerjakan</text>
  <rect x="260" y="172" width="660" height="44" rx="10" fill="#FFFFFF" stroke="#a3a3a3" stroke-width="1.5"/>
  <text x="276" y="200" font-family="Segoe UI, Inter, Arial, sans-serif" font-size="13" fill="#6b7280" text-anchor="start">Cari topik...</text>
  <text x="950" y="200" font-family="Segoe UI, Inter, Arial, sans-serif" font-size="12" font-weight="500" fill="#1a1a1a" text-anchor="start">1 topik</text>
  <rect x="260" y="236" width="760" height="72" rx="14" fill="#FFFFFF" stroke="#a3a3a3" stroke-width="1.5"/>
  <rect x="276" y="248" width="56" height="56" rx="12" fill="#000000"/>
  <text x="304" y="284" font-family="Segoe UI, Inter, Arial, sans-serif" font-size="26" font-weight="700" fill="#FFFFFF" text-anchor="middle">K</text>
  <text x="348" y="280" font-family="Segoe UI, Inter, Arial, sans-serif" font-size="16" font-weight="700" fill="#1a1a1a" text-anchor="start">kewarganegaraan</text>
  <text x="996" y="280" font-family="Segoe UI, Inter, Arial, sans-serif" font-size="24" fill="#1a1a1a" text-anchor="middle">›</text>
</svg>
