<?xml version="1.0" encoding="UTF-8"?>
<svg xmlns="http://www.w3.org/2000/svg" width="1280" height="800" viewBox="0 0 1280 800">
  <rect x="0" y="0" width="1280" height="800" rx="0" fill="#f5f5f5"/>
  <circle cx="1200" cy="90" r="200" fill="#FFFFFF" stroke="#d4d4d4" stroke-width="1"/>
  <circle cx="60" cy="740" r="160" fill="#FFFFFF" stroke="#d4d4d4" stroke-width="1"/>
  <text x="60" y="770" font-family="Segoe UI, Inter, Arial, sans-serif" font-size="28" fill="#6b7280" text-anchor="start">○</text>
  <text x="1180" y="60" font-family="Segoe UI, Inter, Arial, sans-serif" font-size="24" fill="#6b7280" text-anchor="start">★</text>
  <rect x="280" y="32" width="90" height="34" rx="10" fill="#FFFFFF" stroke="#a3a3a3" stroke-width="1.5"/>
  <text x="325" y="54" font-family="Segoe UI, Inter, Arial, sans-serif" font-size="12" font-weight="600" fill="#1a1a1a" text-anchor="middle">← Kembali</text>
  <rect x="390" y="32" width="180" height="30" rx="14" fill="#f5f5f5" stroke="#a3a3a3" stroke-width="1"/>
  <text x="480" y="50" font-family="Segoe UI, Inter, Arial, sans-serif" font-size="11" font-weight="600" fill="#1a1a1a" text-anchor="middle">kewarganegaraan</text>
  <text x="992" y="50" font-family="Segoe UI, Inter, Arial, sans-serif" font-size="12" font-weight="600" fill="#1a1a1a" text-anchor="end">Soal 1 / 4</text>
  <text x="640.0" y="96" font-family="Segoe UI, Inter, Arial, sans-serif" font-size="28" font-weight="800" fill="#1a1a1a" text-anchor="middle">Kerjakan Soal</text>
  <line x1="280" y1="116" x2="1000" y2="116" stroke="#a3a3a3" stroke-width="2"/>
  <rect x="280" y="132" width="720" height="380" rx="20" fill="#FFFFFF" stroke="#a3a3a3" stroke-width="1"/>
  <text x="300" y="164" font-family="Segoe UI, Inter, Arial, sans-serif" font-size="12" font-weight="800" fill="#1a1a1a" text-anchor="start">SOAL 1</text>
  <rect x="870" y="148" width="110" height="26" rx="12" fill="#f5f5f5" stroke="#a3a3a3" stroke-width="1"/>
  <text x="925.0" y="165.0" font-family="Segoe UI, Inter, Arial, sans-serif" font-size="11" font-weight="600" fill="#1a1a1a" text-anchor="middle">PILIHAN GANDA</text>
  <text x="640.0" y="252" font-family="Segoe UI, Inter, Arial, sans-serif" font-size="28" font-weight="700" fill="#1a1a1a" text-anchor="middle">Test</text>
  <rect x="304" y="312" width="672" height="48" rx="12" fill="#f5f5f5" stroke="#a3a3a3" stroke-width="1"/>
  <circle cx="324" cy="336" r="11" fill="none" stroke="#000000" stroke-width="2"/>
  <text x="348" y="342" font-family="Segoe UI, Inter, Arial, sans-serif" font-size="15" font-weight="500" fill="#1a1a1a" text-anchor="start">Benar</text>
  <rect x="304" y="368" width="672" height="48" rx="12" fill="#f5f5f5" stroke="#a3a3a3" stroke-width="1"/>
  <circle cx="324" cy="392" r="11" fill="none" stroke="#000000" stroke-width="2"/>
  <text x="348" y="398" font-family="Segoe UI, Inter, Arial, sans-serif" font-size="15" font-weight="500" fill="#1a1a1a" text-anchor="start">Salah</text>
  <rect x="304" y="424" width="672" height="48" rx="12" fill="#f5f5f5" stroke="#a3a3a3" stroke-width="1"/>
  <circle cx="324" cy="448" r="11" fill="none" stroke="#000000" stroke-width="2"/>
  <text x="348" y="454" font-family="Segoe UI, Inter, Arial, sans-serif" font-size="15" font-weight="500" fill="#1a1a1a" text-anchor="start">Salah</text>
  <rect x="860" y="452" width="124" height="48" rx="14" fill="#000000"/>
  <text x="922" y="482" font-family="Segoe UI, Inter, Arial, sans-serif" font-size="15" font-weight="700" fill="#FFFFFF" text-anchor="middle">Lanjut →</text>
</svg>
