<?xml version="1.0" encoding="UTF-8"?>
<svg xmlns="http://www.w3.org/2000/svg" width="1280" height="800" viewBox="0 0 1280 800">
  <rect x="0" y="0" width="1280" height="800" rx="0" fill="#f5f5f5"/>
  <circle cx="1200" cy="90" r="200" fill="#FFFFFF" stroke="#d4d4d4" stroke-width="1"/>
  <circle cx="60" cy="740" r="160" fill="#FFFFFF" stroke="#d4d4d4" stroke-width="1"/>
  <text x="60" y="770" font-family="Segoe UI, Inter, Arial, sans-serif" font-size="28" fill="#6b7280" text-anchor="start">○</text>
  <text x="1180" y="60" font-family="Segoe UI, Inter, Arial, sans-serif" font-size="24" fill="#6b7280" text-anchor="start">★</text>
  <rect x="280" y="32" width="90" height="34" rx="10" fill="#FFFFFF" stroke="#a3a3a3" stroke-width="1.5"/>
  <text x="325" y="54" font-family="Segoe UI, Inter, Arial, sans-serif" font-size="12" font-weight="600" fill="#1a1a1a" text-anchor="middle">← Kembali</text>
  <rect x="400" y="32" width="180" height="30" rx="14" fill="#f5f5f5" stroke="#a3a3a3" stroke-width="1"/>
  <text x="490" y="50" font-family="Segoe UI, Inter, Arial, sans-serif" font-size="11" font-weight="600" fill="#1a1a1a" text-anchor="middle">kewarganegaraan</text>
  <text x="992" y="50" font-family="Segoe UI, Inter, Arial, sans-serif" font-size="12" font-weight="600" fill="#1a1a1a" text-anchor="end">Soal 3 / 4</text>
  <rect x="280" y="80" width="720" height="8" rx="4" fill="#f5f5f5"/>
  <rect x="280" y="80" width="540" height="8" rx="4" fill="#000000"/>
  <rect x="320" y="140" width="640" height="320" rx="20" fill="#FFFFFF" stroke="#a3a3a3" stroke-width="1.5"/>
  <circle cx="640.0" cy="240" r="36" fill="#f5f5f5" stroke="#000000" stroke-width="2"/>
  <line x1="630.0" y1="230" x2="650.0" y2="250" stroke="#000000" stroke-width="3" stroke-linecap="round"/>
  <line x1="650.0" y1="230" x2="630.0" y2="250" stroke="#000000" stroke-width="3" stroke-linecap="round"/>
  <text x="640.0" y="310" font-family="Segoe UI, Inter, Arial, sans-serif" font-size="28" font-weight="800" fill="#1a1a1a" text-anchor="middle">Jawaban Salah</text>
  <text x="640.0" y="346" font-family="Segoe UI, Inter, Arial, sans-serif" font-size="15" fill="#6b7280" text-anchor="middle">Tetap semangat, terus berlatih!</text>
  <rect x="820" y="490" width="164" height="48" rx="14" fill="#000000"/>
  <text x="902" y="520" font-family="Segoe UI, Inter, Arial, sans-serif" font-size="14" font-weight="700" fill="#FFFFFF" text-anchor="middle">Soal Berikutnya →</text>
</svg>
